<svg width="12" height="11" viewBox="0 0 12 11" fill="none" xmlns="http://www.w3.org/2000/svg">
<path d="M3.129 0.140079C7.507 0.284079 11.019 3.80108 11.152 8.16908V8.18208C11.154 8.22008 11.156 8.26508 11.156 8.31108C11.156 9.44308 10.272 10.3681 9.156 10.4341H9.15C9.145 10.4341 9.138 10.4341 9.132 10.4341C7.987 10.4341 7.059 9.50608 7.059 8.36108C7.02 6.10908 5.215 4.29208 2.972 4.23308H2.966C2.949 4.23308 2.93 4.23408 2.91 4.23408C1.785 4.23408 0.873001 3.32208 0.873001 2.19708C0.873001 2.16508 0.874002 2.13408 0.875002 2.10208V2.10608C0.929002 1.00508 1.836 0.13208 2.946 0.13208C3.01 0.13208 3.073 0.135079 3.135 0.140079L3.127 0.13908L3.129 0.140079Z" fill="#CCBA8D"/>
</svg>
